<svg width="60" height="60" viewBox="0 0 60 60" fill="none" xmlns="http://www.w3.org/2000/svg">
<g filter="url(#filter0_bi_381_2726)">
<rect width="60" height="60" rx="30" fill="black" fill-opacity="0.24"/>
<rect x="0.5" y="0.5" width="59" height="59" rx="29.5" stroke="url(#paint0_linear_381_2726)" stroke-opacity="0.4"/>
</g>
<path d="M36.3749 41.1213V32.3581C36.3749 26.19 31.5787 20.9369 25.4149 20.7175C23.8872 20.6617 22.3639 20.9145 20.9361 21.4606C19.5083 22.0068 18.2052 22.8351 17.1047 23.8962C16.0041 24.9573 15.1288 26.2293 14.5309 27.6363C13.9331 29.0432 13.6249 30.5563 13.6249 32.085V41.1213C13.6249 41.4537 13.5455 41.7814 13.3933 42.0769C13.2411 42.3725 13.0205 42.6275 12.7499 42.8206C12.4293 43.0496 12.18 43.3645 12.0307 43.7291C11.8815 44.0937 11.8383 44.4931 11.9064 44.8812C11.9744 45.2692 12.1508 45.6301 12.4152 45.9222C12.6796 46.2143 13.0212 46.4257 13.4006 46.5319C20.9869 48.6563 29.0111 48.6563 36.5974 46.5319C36.9768 46.4258 37.3184 46.2146 37.5829 45.9227C37.8474 45.6308 38.0239 45.27 38.0921 44.882C38.1604 44.4941 38.1175 44.0947 37.9685 43.7301C37.8194 43.3654 37.5704 43.0504 37.2499 42.8213C36.9792 42.628 36.7586 42.373 36.6064 42.0773C36.4542 41.7816 36.3749 41.4538 36.3749 41.1213Z" fill="#EDB88E"/>
<path d="M38.1248 44.5062C38.1295 44.9647 37.9825 45.4119 37.7067 45.7781C37.4308 46.1443 37.0417 46.4091 36.5998 46.5312C32.8238 47.5886 28.921 48.1248 24.9998 48.125C21.0785 48.1248 17.1757 47.5886 13.3998 46.5312C13.0205 46.4247 12.679 46.2131 12.4148 45.9209C12.1505 45.6286 11.9743 45.2677 11.9063 44.8796C11.8384 44.4915 11.8815 44.0921 12.0307 43.7275C12.18 43.3628 12.4292 43.0478 12.7498 42.8187C13.0209 42.626 13.2419 42.371 13.3942 42.0752C13.5464 41.7794 13.6255 41.4514 13.6248 41.1187V32.0875C13.6236 30.3242 14.0323 28.5848 14.8187 27.0066C15.6051 25.4284 16.7476 24.0546 18.156 22.9937C18.6248 29.35 24.5873 34.375 31.8748 34.375C33.3996 34.3761 34.9162 34.1508 36.3748 33.7062V41.1187C36.374 41.4514 36.4531 41.7794 36.6054 42.0752C36.7576 42.371 36.9786 42.626 37.2498 42.8187C37.5205 43.009 37.7414 43.2617 37.8937 43.5555C38.046 43.8492 38.1253 44.1754 38.1248 44.5062Z" fill="#DA9367"/>
<path d="M25 23.125C24.2949 23.1251 23.608 22.9011 23.0385 22.4855C22.469 22.0698 22.0462 21.484 21.8312 20.8125L19.9562 14.9456C19.8047 14.4721 19.8077 13.9626 19.9647 13.4908C20.1217 13.0191 20.4247 12.6094 20.8298 12.3212C21.2349 12.0329 21.7211 11.8808 22.2183 11.887C22.7155 11.8932 23.1978 12.0573 23.5956 12.3556C24.0014 12.6596 24.4948 12.8239 25.0019 12.8239C25.5089 12.8239 26.0023 12.6596 26.4081 12.3556C26.8059 12.0573 27.2882 11.8932 27.7854 11.887C28.2826 11.8808 28.7688 12.0329 29.1739 12.3212C29.579 12.6094 29.882 13.0191 30.039 13.4908C30.196 13.9626 30.199 14.4721 30.0475 14.9456L28.1725 20.8125C27.9573 21.4846 27.534 22.0709 26.9637 22.4866C26.3934 22.9023 25.7057 23.1259 25 23.125Z" fill="#F9DBAF"/>
<path d="M28.8312 18.7438L28.1687 20.8125C27.9536 21.4839 27.5307 22.0695 26.9612 22.4851C26.3917 22.9006 25.705 23.1245 25 23.1245C24.295 23.1245 23.6082 22.9006 23.0387 22.4851C22.4692 22.0695 22.0464 21.4839 21.8312 20.8125L19.9562 14.9438C19.8456 14.603 19.8147 14.2413 19.8657 13.8867C19.9167 13.5321 20.0484 13.1939 20.2506 12.8981C20.4529 12.6023 20.7202 12.3568 21.0321 12.1806C21.3441 12.0043 21.6923 11.9019 22.05 11.8813L23.7062 17.0625C23.9216 17.7337 24.3445 18.3193 24.9139 18.7349C25.4834 19.1505 26.17 19.3746 26.875 19.375C27.5768 19.3727 28.2604 19.1521 28.8312 18.7438Z" fill="#EDB88E"/>
<path d="M26.3388 18.1312C26.2575 18.1196 26.1747 18.124 26.0952 18.1444C26.0157 18.1647 25.9409 18.2005 25.8752 18.2497C25.8095 18.2989 25.7542 18.3606 25.7123 18.4312C25.6704 18.5018 25.6429 18.58 25.6313 18.6612L25.1313 22.1412C25.1196 22.2225 25.124 22.3053 25.1444 22.3848C25.1647 22.4643 25.2005 22.5391 25.2497 22.6048C25.2989 22.6705 25.3606 22.7258 25.4312 22.7677C25.5018 22.8096 25.58 22.8371 25.6613 22.8487C25.6909 22.8525 25.7208 22.8543 25.7506 22.8544C25.9009 22.8542 26.0461 22.8 26.1597 22.7015C26.2732 22.603 26.3474 22.4669 26.3688 22.3181L26.8656 18.8387C26.8892 18.6751 26.8471 18.5088 26.7483 18.3762C26.6496 18.2436 26.5023 18.1555 26.3388 18.1312ZM23.6875 16.2531C23.6058 16.2613 23.5266 16.2855 23.4543 16.3244C23.382 16.3632 23.318 16.4159 23.2661 16.4795C23.2141 16.543 23.1752 16.6162 23.1516 16.6948C23.1279 16.7733 23.1199 16.8558 23.1281 16.9375L23.6644 22.3C23.6799 22.454 23.752 22.5969 23.8668 22.7008C23.9815 22.8047 24.1308 22.8623 24.2856 22.8625H24.3481C24.4301 22.8547 24.5097 22.8307 24.5823 22.7921C24.655 22.7534 24.7193 22.7008 24.7716 22.6372C24.8238 22.5736 24.863 22.5003 24.8869 22.4215C24.9108 22.3427 24.9188 22.26 24.9106 22.1781L24.375 16.8125C24.3668 16.7305 24.3425 16.651 24.3035 16.5785C24.2644 16.5059 24.2115 16.4418 24.1476 16.3899C24.0837 16.3379 24.0101 16.299 23.9312 16.2756C23.8522 16.2521 23.7694 16.2445 23.6875 16.2531Z" fill="#EDB88E"/>
<path d="M26.7936 19.3688L26.3749 22.3188C26.3528 22.4674 26.2783 22.6033 26.1649 22.7019C26.0514 22.8004 25.9064 22.8552 25.7561 22.8563C25.7249 22.8563 25.6936 22.85 25.6624 22.85C25.4994 22.8243 25.3529 22.7363 25.2537 22.6045C25.1546 22.4726 25.1106 22.3074 25.1311 22.1438L25.5686 19.1063C25.956 19.2727 26.3721 19.3619 26.7936 19.3688ZM24.9061 22.175C24.9148 22.2567 24.9073 22.3393 24.884 22.418C24.8607 22.4968 24.8222 22.5702 24.7705 22.634C24.7188 22.6979 24.6551 22.7509 24.5829 22.7901C24.5108 22.8293 24.4316 22.8539 24.3499 22.8625H24.2874C24.1321 22.8624 23.9824 22.805 23.867 22.7011C23.7516 22.5973 23.6787 22.4544 23.6624 22.3L23.1249 16.9375C23.1129 16.8117 23.1394 16.6852 23.2007 16.5748C23.2621 16.4643 23.3555 16.3751 23.4686 16.3188L23.7061 17.0625C23.8726 17.5704 24.1551 18.0326 24.5311 18.4125L24.9061 22.175Z" fill="#DA9367"/>
<path d="M28.8281 22.8125C27.6624 23.4788 26.343 23.8292 25.0003 23.8292C23.6576 23.8292 22.3382 23.4788 21.1725 22.8125C21.0062 22.7176 20.868 22.5805 20.7719 22.4149C20.6757 22.2494 20.6251 22.0614 20.625 21.87C20.6249 21.6797 20.6749 21.4928 20.7698 21.3279C20.8648 21.163 21.0014 21.026 21.1659 20.9305C21.3305 20.8351 21.5173 20.7846 21.7076 20.784C21.8978 20.7835 22.0849 20.833 22.25 20.9275C23.0876 21.4057 24.0355 21.6573 25 21.6573C25.9645 21.6573 26.9124 21.4057 27.75 20.9275C27.9151 20.8328 28.1022 20.7831 28.2925 20.7836C28.4829 20.784 28.6697 20.8345 28.8344 20.93C28.999 21.0255 29.1356 21.1626 29.2305 21.3276C29.3254 21.4926 29.3752 21.6797 29.375 21.87C29.375 22.0614 29.3244 22.2493 29.2284 22.4148C29.1323 22.5803 28.9943 22.7175 28.8281 22.8125Z" fill="#FCEA42"/>
<path d="M29.375 21.8687C29.376 22.0601 29.3261 22.2482 29.2306 22.414C29.1351 22.5798 28.9973 22.7173 28.8313 22.8125C27.6656 23.4791 26.346 23.8297 25.0032 23.8297C23.6603 23.8297 22.3407 23.4791 21.175 22.8125H21.1688C21.0028 22.7173 20.865 22.5798 20.7695 22.414C20.674 22.2482 20.6241 22.0601 20.625 21.8687C20.6233 21.6444 20.6933 21.4254 20.825 21.2437C20.9141 21.3745 21.0316 21.4835 21.1688 21.5625H21.175C22.3407 22.2291 23.6603 22.5797 25.0032 22.5797C26.346 22.5797 27.6656 22.2291 28.8313 21.5625C28.9684 21.4835 29.0859 21.3745 29.175 21.2437C29.3067 21.4254 29.3768 21.6444 29.375 21.8687Z" fill="#FDC741"/>
<path d="M35.4645 29.3356L29.2672 33.5599C28.6968 33.9487 28.5496 34.7264 28.9384 35.2968L29.6425 36.3297C30.0313 36.9001 30.8089 37.0473 31.3794 36.6585L37.5766 32.4342C38.147 32.0454 38.2943 31.2677 37.9054 30.6973L37.2014 29.6644C36.8125 29.094 36.0349 28.9468 35.4645 29.3356Z" fill="#FCEA42"/>
<path d="M43.125 33.125C45.8864 33.125 48.125 30.8864 48.125 28.125C48.125 25.3636 45.8864 23.125 43.125 23.125C40.3636 23.125 38.125 25.3636 38.125 28.125C38.125 30.8864 40.3636 33.125 43.125 33.125Z" fill="#FCEA42"/>
<path d="M47.9312 29.4938C47.6933 30.3321 47.2404 31.0937 46.6175 31.7031C45.9945 32.3125 45.2231 32.7485 44.3797 32.9679C43.5363 33.1872 42.6502 33.1823 41.8093 32.9537C40.9683 32.7251 40.2018 32.2806 39.5856 31.6644C38.9693 31.0482 38.5249 30.2816 38.2962 29.4407C38.0676 28.5997 38.0627 27.7137 38.2821 26.8703C38.5015 26.0269 38.9374 25.2555 39.5468 24.6325C40.1562 24.0095 40.9178 23.5566 41.7562 23.3188C41.5102 24.1754 41.4981 25.0823 41.721 25.9452C41.944 26.8081 42.394 27.5955 43.0242 28.2257C43.6544 28.8559 44.4419 29.3059 45.3048 29.5289C46.1677 29.7519 47.0746 29.7398 47.9312 29.4938Z" fill="#FDC741"/>
<path d="M43.125 30.625C44.5057 30.625 45.625 29.5057 45.625 28.125C45.625 26.7443 44.5057 25.625 43.125 25.625C41.7443 25.625 40.625 26.7443 40.625 28.125C40.625 29.5057 41.7443 30.625 43.125 30.625Z" fill="#FDC741"/>
<path d="M45.2122 29.5C45.0083 29.8101 44.7378 30.0709 44.4205 30.2635C44.1031 30.4561 43.7469 30.5755 43.3776 30.6133C43.0083 30.651 42.6353 30.606 42.2856 30.4816C41.9359 30.3572 41.6182 30.1564 41.3558 29.894C41.0933 29.6315 40.8926 29.3139 40.7682 28.9642C40.6437 28.6144 40.5988 28.2414 40.6365 27.8721C40.6742 27.5029 40.7937 27.1466 40.9862 26.8293C41.1788 26.512 41.4396 26.2415 41.7497 26.0375C41.98 26.8639 42.4197 27.6169 43.0263 28.2235C43.6329 28.8301 44.3858 29.2698 45.2122 29.5Z" fill="#EFAD1B"/>
<path d="M37.5811 32.4375L31.3811 36.6562C31.1076 36.8435 30.7709 36.9145 30.4451 36.8535C30.1192 36.7926 29.8309 36.6047 29.6436 36.3312L28.9374 35.2937C28.752 35.0191 28.6828 34.6822 28.7449 34.3567C28.8069 34.0312 28.9952 33.7435 29.2686 33.5562L30.1061 32.9875L30.6686 33.8062C30.7609 33.9422 30.879 34.0585 31.0163 34.1488C31.1536 34.239 31.3073 34.3012 31.4687 34.332C31.6301 34.3628 31.7959 34.3614 31.9568 34.3281C32.1176 34.2947 32.2703 34.2299 32.4061 34.1375L37.7624 30.4875L37.9061 30.7C38.0924 30.9738 38.1628 31.3102 38.1019 31.6358C38.041 31.9613 37.8538 32.2495 37.5811 32.4375Z" fill="#FDC741"/>
<path d="M45 33.125H37.5C36.8096 33.125 36.25 33.6846 36.25 34.375V35.625C36.25 36.3154 36.8096 36.875 37.5 36.875H45C45.6904 36.875 46.25 36.3154 46.25 35.625V34.375C46.25 33.6846 45.6904 33.125 45 33.125Z" fill="#FCEA42"/>
<path d="M46.25 35V35.625C46.249 35.9562 46.117 36.2736 45.8828 36.5078C45.6486 36.742 45.3312 36.874 45 36.875H37.5C37.1688 36.874 36.8514 36.742 36.6172 36.5078C36.383 36.2736 36.251 35.9562 36.25 35.625V34.375C36.251 34.0438 36.383 33.7264 36.6172 33.4922C36.8514 33.258 37.1688 33.126 37.5 33.125H38.75V33.75C38.751 34.0812 38.883 34.3986 39.1172 34.6328C39.3514 34.867 39.6688 34.999 40 35H46.25Z" fill="#FDC741"/>
<path d="M38.1251 33.125V34.375C38.1251 34.5408 38.1909 34.6997 38.3082 34.8169C38.4254 34.9342 38.5843 35 38.7501 35C38.9159 35 39.0748 34.9342 39.192 34.8169C39.3092 34.6997 39.3751 34.5408 39.3751 34.375V33.125H38.1251ZM40.6251 33.125V34.375C40.6251 34.5408 40.6909 34.6997 40.8082 34.8169C40.9254 34.9342 41.0843 35 41.2501 35C41.4159 35 41.5748 34.9342 41.692 34.8169C41.8092 34.6997 41.8751 34.5408 41.8751 34.375V33.125H40.6251ZM43.1251 33.125V34.375C43.1251 34.5408 43.1909 34.6997 43.3082 34.8169C43.4254 34.9342 43.5843 35 43.7501 35C43.9159 35 44.0748 34.9342 44.192 34.8169C44.3092 34.6997 44.3751 34.5408 44.3751 34.375V33.125H43.1251ZM31.3563 34.4062C31.2521 34.4742 31.1307 34.511 31.0063 34.5125C30.904 34.5127 30.8031 34.4877 30.7127 34.4397C30.6222 34.3918 30.5449 34.3223 30.4876 34.2375L29.7876 33.2063L30.8188 32.5L31.5251 33.5375C31.5712 33.6056 31.6033 33.6821 31.6198 33.7626C31.6362 33.8432 31.6366 33.9262 31.621 34.0069C31.6053 34.0876 31.5738 34.1644 31.5284 34.2329C31.483 34.3015 31.4246 34.3604 31.3563 34.4062ZM33.4251 32.9938C33.3578 33.0412 33.2816 33.0747 33.2011 33.0922C33.1206 33.1097 33.0374 33.1109 32.9564 33.0958C32.8755 33.0806 32.7983 33.0494 32.7296 33.004C32.6609 32.9586 32.602 32.8998 32.5563 32.8312L31.8501 31.8L32.8876 31.0938L33.5876 32.1312C33.6793 32.2675 33.7136 32.4344 33.6832 32.5958C33.6528 32.7572 33.5601 32.9002 33.4251 32.9938ZM35.4876 31.5875C35.3856 31.6608 35.2632 31.7002 35.1376 31.7C35.0355 31.6988 34.9351 31.6732 34.8449 31.6254C34.7547 31.5775 34.6772 31.5088 34.6188 31.425L33.9188 30.3938L34.9501 29.6875L35.6563 30.7188C35.7024 30.7868 35.7346 30.8633 35.751 30.9439C35.7675 31.0244 35.7679 31.1074 35.7522 31.1881C35.7365 31.2688 35.7051 31.3457 35.6597 31.4142C35.6143 31.4827 35.5558 31.5416 35.4876 31.5875Z" fill="#EFAD1B"/>
<path d="M43.75 36.875H36.25C35.5596 36.875 35 37.4346 35 38.125V39.375C35 40.0654 35.5596 40.625 36.25 40.625H43.75C44.4404 40.625 45 40.0654 45 39.375V38.125C45 37.4346 44.4404 36.875 43.75 36.875Z" fill="#FCEA42"/>
<path d="M45 38.75V39.375C44.999 39.7062 44.867 40.0236 44.6328 40.2578C44.3986 40.492 44.0812 40.624 43.75 40.625H36.25C35.9188 40.624 35.6014 40.492 35.3672 40.2578C35.133 40.0236 35.001 39.7062 35 39.375V38.125C35.001 37.7938 35.133 37.4764 35.3672 37.2422C35.6014 37.008 35.9188 36.876 36.25 36.875H37.5V37.5C37.501 37.8312 37.633 38.1486 37.8672 38.3828C38.1014 38.617 38.4188 38.749 38.75 38.75H45Z" fill="#FDC741"/>
<path d="M36.875 36.875V38.125C36.875 38.2908 36.9408 38.4497 37.0581 38.5669C37.1753 38.6842 37.3342 38.75 37.5 38.75C37.6658 38.75 37.8247 38.6842 37.9419 38.5669C38.0592 38.4497 38.125 38.2908 38.125 38.125V36.875H36.875ZM39.375 36.875V38.125C39.375 38.2908 39.4408 38.4497 39.5581 38.5669C39.6753 38.6842 39.8342 38.75 40 38.75C40.1658 38.75 40.3247 38.6842 40.4419 38.5669C40.5592 38.4497 40.625 38.2908 40.625 38.125V36.875H39.375ZM41.875 36.875V38.125C41.875 38.2908 41.9408 38.4497 42.0581 38.5669C42.1753 38.6842 42.3342 38.75 42.5 38.75C42.6658 38.75 42.8247 38.6842 42.9419 38.5669C43.0592 38.4497 43.125 38.2908 43.125 38.125V36.875H41.875Z" fill="#EFAD1B"/>
<path d="M33.75 36.875H26.25C25.5596 36.875 25 37.4346 25 38.125V39.375C25 40.0654 25.5596 40.625 26.25 40.625H33.75C34.4404 40.625 35 40.0654 35 39.375V38.125C35 37.4346 34.4404 36.875 33.75 36.875Z" fill="#FCEA42"/>
<path d="M35 38.75V39.375C34.999 39.7062 34.867 40.0236 34.6328 40.2578C34.3986 40.492 34.0812 40.624 33.75 40.625H26.25C25.9188 40.624 25.6014 40.492 25.3672 40.2578C25.133 40.0236 25.001 39.7062 25 39.375V38.125C25.001 37.7938 25.133 37.4764 25.3672 37.2422C25.6014 37.008 25.9188 36.876 26.25 36.875H27.5V37.5C27.501 37.8312 27.633 38.1486 27.8672 38.3828C28.1014 38.617 28.4188 38.749 28.75 38.75H35Z" fill="#FDC741"/>
<path d="M26.875 36.875V38.125C26.875 38.2908 26.9408 38.4497 27.0581 38.5669C27.1753 38.6842 27.3342 38.75 27.5 38.75C27.6658 38.75 27.8247 38.6842 27.9419 38.5669C28.0592 38.4497 28.125 38.2908 28.125 38.125V36.875H26.875ZM29.375 36.875V38.125C29.375 38.2908 29.4408 38.4497 29.5581 38.5669C29.6753 38.6842 29.8342 38.75 30 38.75C30.1658 38.75 30.3247 38.6842 30.4419 38.5669C30.5592 38.4497 30.625 38.2908 30.625 38.125V36.875H29.375ZM31.875 36.875V38.125C31.875 38.2908 31.9408 38.4497 32.0581 38.5669C32.1753 38.6842 32.3342 38.75 32.5 38.75C32.6658 38.75 32.8247 38.6842 32.9419 38.5669C33.0592 38.4497 33.125 38.2908 33.125 38.125V36.875H31.875Z" fill="#EFAD1B"/>
<path d="M26.875 40.625H19.375C18.6846 40.625 18.125 41.1846 18.125 41.875V43.125C18.125 43.8154 18.6846 44.375 19.375 44.375H26.875C27.5654 44.375 28.125 43.8154 28.125 43.125V41.875C28.125 41.1846 27.5654 40.625 26.875 40.625Z" fill="#FCEA42"/>
<path d="M28.125 42.5V43.125C28.124 43.4562 27.992 43.7736 27.7578 44.0078C27.5236 44.242 27.2062 44.374 26.875 44.375H19.375C19.0438 44.374 18.7264 44.242 18.4922 44.0078C18.258 43.7736 18.126 43.4562 18.125 43.125V41.875C18.126 41.5438 18.258 41.2264 18.4922 40.9922C18.7264 40.758 19.0438 40.626 19.375 40.625H20.625V41.25C20.626 41.5812 20.758 41.8986 20.9922 42.1328C21.2264 42.367 21.5438 42.499 21.875 42.5H28.125Z" fill="#FDC741"/>
<path d="M20 40.625V41.875C20 42.0408 20.0658 42.1997 20.1831 42.3169C20.3003 42.4342 20.4592 42.5 20.625 42.5C20.7908 42.5 20.9497 42.4342 21.0669 42.3169C21.1842 42.1997 21.25 42.0408 21.25 41.875V40.625H20ZM22.5 40.625V41.875C22.5 42.0408 22.5658 42.1997 22.6831 42.3169C22.8003 42.4342 22.9592 42.5 23.125 42.5C23.2908 42.5 23.4497 42.4342 23.5669 42.3169C23.6842 42.1997 23.75 42.0408 23.75 41.875V40.625H22.5ZM25 40.625V41.875C25 42.0408 25.0658 42.1997 25.1831 42.3169C25.3003 42.4342 25.4592 42.5 25.625 42.5C25.7908 42.5 25.9497 42.4342 26.0669 42.3169C26.1842 42.1997 26.25 42.0408 26.25 41.875V40.625H25Z" fill="#EFAD1B"/>
<path d="M36.875 40.625H29.375C28.6846 40.625 28.125 41.1846 28.125 41.875V43.125C28.125 43.8154 28.6846 44.375 29.375 44.375H36.875C37.5654 44.375 38.125 43.8154 38.125 43.125V41.875C38.125 41.1846 37.5654 40.625 36.875 40.625Z" fill="#FCEA42"/>
<path d="M38.125 42.5V43.125C38.124 43.4562 37.992 43.7736 37.7578 44.0078C37.5236 44.242 37.2062 44.374 36.875 44.375H29.375C29.0438 44.374 28.7264 44.242 28.4922 44.0078C28.258 43.7736 28.126 43.4562 28.125 43.125V41.875C28.126 41.5438 28.258 41.2264 28.4922 40.9922C28.7264 40.758 29.0438 40.626 29.375 40.625H30.625V41.25C30.626 41.5812 30.758 41.8986 30.9922 42.1328C31.2264 42.367 31.5438 42.499 31.875 42.5H38.125Z" fill="#FDC741"/>
<path d="M30 40.625V41.875C30 42.0408 30.0658 42.1997 30.1831 42.3169C30.3003 42.4342 30.4592 42.5 30.625 42.5C30.7908 42.5 30.9497 42.4342 31.0669 42.3169C31.1842 42.1997 31.25 42.0408 31.25 41.875V40.625H30ZM32.5 40.625V41.875C32.5 42.0408 32.5658 42.1997 32.6831 42.3169C32.8003 42.4342 32.9592 42.5 33.125 42.5C33.2908 42.5 33.4497 42.4342 33.5669 42.3169C33.6842 42.1997 33.75 42.0408 33.75 41.875V40.625H32.5ZM35 40.625V41.875C35 42.0408 35.0658 42.1997 35.1831 42.3169C35.3003 42.4342 35.4592 42.5 35.625 42.5C35.7908 42.5 35.9497 42.4342 36.0669 42.3169C36.1842 42.1997 36.25 42.0408 36.25 41.875V40.625H35Z" fill="#EFAD1B"/>
<path d="M46.875 40.625H39.375C38.6846 40.625 38.125 41.1846 38.125 41.875V43.125C38.125 43.8154 38.6846 44.375 39.375 44.375H46.875C47.5654 44.375 48.125 43.8154 48.125 43.125V41.875C48.125 41.1846 47.5654 40.625 46.875 40.625Z" fill="#FCEA42"/>
<path d="M48.125 42.5V43.125C48.124 43.4562 47.992 43.7736 47.7578 44.0078C47.5236 44.242 47.2062 44.374 46.875 44.375H39.375C39.0438 44.374 38.7264 44.242 38.4922 44.0078C38.258 43.7736 38.126 43.4562 38.125 43.125V41.875C38.126 41.5438 38.258 41.2264 38.4922 40.9922C38.7264 40.758 39.0438 40.626 39.375 40.625H40.625V41.25C40.626 41.5812 40.758 41.8986 40.9922 42.1328C41.2264 42.367 41.5438 42.499 41.875 42.5H48.125Z" fill="#FDC741"/>
<path d="M40 40.625V41.875C40 42.0408 40.0658 42.1997 40.1831 42.3169C40.3003 42.4342 40.4592 42.5 40.625 42.5C40.7908 42.5 40.9497 42.4342 41.0669 42.3169C41.1842 42.1997 41.25 42.0408 41.25 41.875V40.625H40ZM42.5 40.625V41.875C42.5 42.0408 42.5658 42.1997 42.6831 42.3169C42.8003 42.4342 42.9592 42.5 43.125 42.5C43.2908 42.5 43.4497 42.4342 43.5669 42.3169C43.6842 42.1997 43.75 42.0408 43.75 41.875V40.625H42.5ZM45 40.625V41.875C45 42.0408 45.0658 42.1997 45.1831 42.3169C45.3003 42.4342 45.4592 42.5 45.625 42.5C45.7908 42.5 45.9497 42.4342 46.0669 42.3169C46.1842 42.1997 46.25 42.0408 46.25 41.875V40.625H45Z" fill="#EFAD1B"/>
<path d="M46.875 44.375H39.375C38.6846 44.375 38.125 44.9346 38.125 45.625V46.875C38.125 47.5654 38.6846 48.125 39.375 48.125H46.875C47.5654 48.125 48.125 47.5654 48.125 46.875V45.625C48.125 44.9346 47.5654 44.375 46.875 44.375Z" fill="#FCEA42"/>
<path d="M48.125 46.25V46.875C48.124 47.2062 47.992 47.5236 47.7578 47.7578C47.5236 47.992 47.2062 48.124 46.875 48.125H39.375C39.0438 48.124 38.7264 47.992 38.4922 47.7578C38.258 47.5236 38.126 47.2062 38.125 46.875V45.625C38.126 45.2938 38.258 44.9764 38.4922 44.7422C38.7264 44.508 39.0438 44.376 39.375 44.375H40.625V45C40.626 45.3312 40.758 45.6486 40.9922 45.8828C41.2264 46.117 41.5438 46.249 41.875 46.25H48.125Z" fill="#FDC741"/>
<path d="M40 44.375V45.625C40 45.7908 40.0658 45.9497 40.1831 46.0669C40.3003 46.1842 40.4592 46.25 40.625 46.25C40.7908 46.25 40.9497 46.1842 41.0669 46.0669C41.1842 45.9497 41.25 45.7908 41.25 45.625V44.375H40ZM42.5 44.375V45.625C42.5 45.7908 42.5658 45.9497 42.6831 46.0669C42.8003 46.1842 42.9592 46.25 43.125 46.25C43.2908 46.25 43.4497 46.1842 43.5669 46.0669C43.6842 45.9497 43.75 45.7908 43.75 45.625V44.375H42.5ZM45 44.375V45.625C45 45.7908 45.0658 45.9497 45.1831 46.0669C45.3003 46.1842 45.4592 46.25 45.625 46.25C45.7908 46.25 45.9497 46.1842 46.0669 46.0669C46.1842 45.9497 46.25 45.7908 46.25 45.625V44.375H45Z" fill="#EFAD1B"/>
<path d="M36.875 44.375H29.375C28.6846 44.375 28.125 44.9346 28.125 45.625V46.875C28.125 47.5654 28.6846 48.125 29.375 48.125H36.875C37.5654 48.125 38.125 47.5654 38.125 46.875V45.625C38.125 44.9346 37.5654 44.375 36.875 44.375Z" fill="#FCEA42"/>
<path d="M38.125 46.25V46.875C38.124 47.2062 37.992 47.5236 37.7578 47.7578C37.5236 47.992 37.2062 48.124 36.875 48.125H29.375C29.0438 48.124 28.7264 47.992 28.4922 47.7578C28.258 47.5236 28.126 47.2062 28.125 46.875V45.625C28.126 45.2938 28.258 44.9764 28.4922 44.7422C28.7264 44.508 29.0438 44.376 29.375 44.375H30.625V45C30.626 45.3312 30.758 45.6486 30.9922 45.8828C31.2264 46.117 31.5438 46.249 31.875 46.25H38.125Z" fill="#FDC741"/>
<path d="M30 44.375V45.625C30 45.7908 30.0658 45.9497 30.1831 46.0669C30.3003 46.1842 30.4592 46.25 30.625 46.25C30.7908 46.25 30.9497 46.1842 31.0669 46.0669C31.1842 45.9497 31.25 45.7908 31.25 45.625V44.375H30ZM32.5 44.375V45.625C32.5 45.7908 32.5658 45.9497 32.6831 46.0669C32.8003 46.1842 32.9592 46.25 33.125 46.25C33.2908 46.25 33.4497 46.1842 33.5669 46.0669C33.6842 45.9497 33.75 45.7908 33.75 45.625V44.375H32.5ZM35 44.375V45.625C35 45.7908 35.0658 45.9497 35.1831 46.0669C35.3003 46.1842 35.4592 46.25 35.625 46.25C35.7908 46.25 35.9497 46.1842 36.0669 46.0669C36.1842 45.9497 36.25 45.7908 36.25 45.625V44.375H35Z" fill="#EFAD1B"/>
<path d="M26.875 44.375H19.375C18.6846 44.375 18.125 44.9346 18.125 45.625V46.875C18.125 47.5654 18.6846 48.125 19.375 48.125H26.875C27.5654 48.125 28.125 47.5654 28.125 46.875V45.625C28.125 44.9346 27.5654 44.375 26.875 44.375Z" fill="#FCEA42"/>
<path d="M28.125 46.25V46.875C28.124 47.2062 27.992 47.5236 27.7578 47.7578C27.5236 47.992 27.2062 48.124 26.875 48.125H19.375C19.0438 48.124 18.7264 47.992 18.4922 47.7578C18.258 47.5236 18.126 47.2062 18.125 46.875V45.625C18.126 45.2938 18.258 44.9764 18.4922 44.7422C18.7264 44.508 19.0438 44.376 19.375 44.375H20.625V45C20.626 45.3312 20.758 45.6486 20.9922 45.8828C21.2264 46.117 21.5438 46.249 21.875 46.25H28.125Z" fill="#FDC741"/>
<path d="M20 44.375V45.625C20 45.7908 20.0658 45.9497 20.1831 46.0669C20.3003 46.1842 20.4592 46.25 20.625 46.25C20.7908 46.25 20.9497 46.1842 21.0669 46.0669C21.1842 45.9497 21.25 45.7908 21.25 45.625V44.375H20ZM22.5 44.375V45.625C22.5 45.7908 22.5658 45.9497 22.6831 46.0669C22.8003 46.1842 22.9592 46.25 23.125 46.25C23.2908 46.25 23.4497 46.1842 23.5669 46.0669C23.6842 45.9497 23.75 45.7908 23.75 45.625V44.375H22.5ZM25 44.375V45.625C25 45.7908 25.0658 45.9497 25.1831 46.0669C25.3003 46.1842 25.4592 46.25 25.625 46.25C25.7908 46.25 25.9497 46.1842 26.0669 46.0669C26.1842 45.9497 26.25 45.7908 26.25 45.625V44.375H25Z" fill="#EFAD1B"/>
<path d="M45.625 16.875C45.625 16.212 45.3616 15.5761 44.8928 15.1072C44.4239 14.6384 43.788 14.375 43.125 14.375C43.788 14.375 44.4239 14.1116 44.8928 13.6428C45.3616 13.1739 45.625 12.538 45.625 11.875C45.625 12.538 45.8884 13.1739 46.3572 13.6428C46.8261 14.1116 47.462 14.375 48.125 14.375C47.462 14.375 46.8261 14.6384 46.3572 15.1072C45.8884 15.5761 45.625 16.212 45.625 16.875Z" fill="#FCEA42"/>
<path d="M47.1937 14.5625C46.8799 14.6837 46.5946 14.8688 46.3562 15.1062C45.889 15.5765 45.6262 16.2121 45.625 16.875C45.625 16.212 45.3616 15.5761 44.8928 15.1072C44.4239 14.6384 43.788 14.375 43.125 14.375C43.7879 14.3738 44.4235 14.111 44.8938 13.6437C45.1312 13.4053 45.3163 13.1201 45.4375 12.8062L45.3688 13.1625C45.3289 13.3639 45.3393 13.5721 45.399 13.7685C45.4587 13.965 45.5659 14.1437 45.7111 14.2889C45.8563 14.4341 46.035 14.5413 46.2315 14.601C46.4279 14.6607 46.6361 14.6711 46.8375 14.6312L47.1937 14.5625Z" fill="#FDC741"/>
<path d="M34.375 22.5C34.375 21.837 34.1116 21.2011 33.6428 20.7322C33.1739 20.2634 32.538 20 31.875 20C32.538 20 33.1739 19.7366 33.6428 19.2678C34.1116 18.7989 34.375 18.163 34.375 17.5C34.375 18.163 34.6384 18.7989 35.1072 19.2678C35.5761 19.7366 36.212 20 36.875 20C36.212 20 35.5761 20.2634 35.1072 20.7322C34.6384 21.2011 34.375 21.837 34.375 22.5Z" fill="#FCEA42"/>
<path d="M35.9437 20.1875C35.6299 20.3087 35.3446 20.4938 35.1062 20.7312C34.639 21.2015 34.3762 21.8371 34.375 22.5C34.375 21.837 34.1116 21.2011 33.6428 20.7322C33.1739 20.2634 32.538 20 31.875 20C32.5379 19.9988 33.1735 19.736 33.6438 19.2687C33.8812 19.0303 34.0663 18.7451 34.1875 18.4312L34.1188 18.7875C34.0789 18.9889 34.0893 19.1971 34.149 19.3935C34.2087 19.59 34.3159 19.7687 34.4611 19.9139C34.6063 20.0591 34.785 20.1663 34.9815 20.226C35.1779 20.2857 35.3861 20.2961 35.5875 20.2562L35.9437 20.1875Z" fill="#FDC741"/>
<path d="M15 29.375C15 28.712 14.7366 28.0761 14.2678 27.6072C13.7989 27.1384 13.163 26.875 12.5 26.875C13.163 26.875 13.7989 26.6116 14.2678 26.1428C14.7366 25.6739 15 25.038 15 24.375C15 25.038 15.2634 25.6739 15.7322 26.1428C16.2011 26.6116 16.837 26.875 17.5 26.875C16.837 26.875 16.2011 27.1384 15.7322 27.6072C15.2634 28.0761 15 28.712 15 29.375Z" fill="#FCEA42"/>
<path d="M16.5688 27.0625C16.2549 27.1837 15.9697 27.3688 15.7313 27.6062C15.264 28.0765 15.0012 28.7121 15 29.375C15 28.712 14.7366 28.0761 14.2678 27.6072C13.7989 27.1384 13.163 26.875 12.5 26.875C13.1629 26.8738 13.7985 26.611 14.2688 26.1437C14.5062 25.9053 14.6913 25.6201 14.8125 25.3062L14.7438 25.6625C14.7039 25.8639 14.7143 26.0721 14.774 26.2685C14.8337 26.465 14.9409 26.6437 15.0861 26.7889C15.2313 26.9341 15.41 27.0413 15.6065 27.101C15.8029 27.1607 16.0111 27.1711 16.2125 27.1312L16.5688 27.0625Z" fill="#FDC741"/>
<path d="M20.625 38.125C20.625 37.462 20.3616 36.8261 19.8928 36.3572C19.4239 35.8884 18.788 35.625 18.125 35.625C18.788 35.625 19.4239 35.3616 19.8928 34.8928C20.3616 34.4239 20.625 33.788 20.625 33.125C20.625 33.788 20.8884 34.4239 21.3572 34.8928C21.8261 35.3616 22.462 35.625 23.125 35.625C22.462 35.625 21.8261 35.8884 21.3572 36.3572C20.8884 36.8261 20.625 37.462 20.625 38.125Z" fill="#FCEA42"/>
<path d="M22.1938 35.8125C21.8799 35.9336 21.5947 36.1188 21.3563 36.3562C20.889 36.8264 20.6262 37.4621 20.625 38.125C20.625 37.462 20.3616 36.8261 19.8928 36.3572C19.4239 35.8884 18.788 35.625 18.125 35.625C18.7879 35.6238 19.4235 35.361 19.8938 34.8937C20.1312 34.6553 20.3163 34.3701 20.4375 34.0562L20.3688 34.4125C20.3289 34.6139 20.3393 34.8221 20.399 35.0185C20.4587 35.215 20.5659 35.3937 20.7111 35.5389C20.8563 35.6841 21.035 35.7913 21.2315 35.851C21.4279 35.9107 21.6361 35.9211 21.8375 35.8812L22.1938 35.8125Z" fill="#FDC741"/>
<path d="M42.5 19.375H41.875V18.75C41.875 18.5842 41.8092 18.4253 41.6919 18.3081C41.5747 18.1908 41.4158 18.125 41.25 18.125C41.0842 18.125 40.9253 18.1908 40.8081 18.3081C40.6908 18.4253 40.625 18.5842 40.625 18.75V19.375H40C39.8342 19.375 39.6753 19.4408 39.5581 19.5581C39.4408 19.6753 39.375 19.8342 39.375 20C39.375 20.1658 39.4408 20.3247 39.5581 20.4419C39.6753 20.5592 39.8342 20.625 40 20.625H40.625V21.25C40.625 21.4158 40.6908 21.5747 40.8081 21.6919C40.9253 21.8092 41.0842 21.875 41.25 21.875C41.4158 21.875 41.5747 21.8092 41.6919 21.6919C41.8092 21.5747 41.875 21.4158 41.875 21.25V20.625H42.5C42.6658 20.625 42.8247 20.5592 42.9419 20.4419C43.0592 20.3247 43.125 20.1658 43.125 20C43.125 19.8342 43.0592 19.6753 42.9419 19.5581C42.8247 19.4408 42.6658 19.375 42.5 19.375ZM30 28.75C30.1658 28.75 30.3247 28.6842 30.4419 28.5669C30.5592 28.4497 30.625 28.2908 30.625 28.125C30.625 27.9592 30.5592 27.8003 30.4419 27.6831C30.3247 27.5658 30.1658 27.5 30 27.5H29.375V26.875C29.375 26.7092 29.3092 26.5503 29.1919 26.4331C29.0747 26.3158 28.9158 26.25 28.75 26.25C28.5842 26.25 28.4253 26.3158 28.3081 26.4331C28.1908 26.5503 28.125 26.7092 28.125 26.875V27.5H27.5C27.3342 27.5 27.1753 27.5658 27.0581 27.6831C26.9408 27.8003 26.875 27.9592 26.875 28.125C26.875 28.2908 26.9408 28.4497 27.0581 28.5669C27.1753 28.6842 27.3342 28.75 27.5 28.75H28.125V29.375C28.125 29.5408 28.1908 29.6997 28.3081 29.8169C28.4253 29.9342 28.5842 30 28.75 30C28.9158 30 29.0747 29.9342 29.1919 29.8169C29.3092 29.6997 29.375 29.5408 29.375 29.375V28.75H30ZM34.375 15V14.375H35C35.1658 14.375 35.3247 14.3092 35.4419 14.1919C35.5592 14.0747 35.625 13.9158 35.625 13.75C35.625 13.5842 35.5592 13.4253 35.4419 13.3081C35.3247 13.1908 35.1658 13.125 35 13.125H34.375V12.5C34.375 12.3342 34.3092 12.1753 34.1919 12.0581C34.0747 11.9408 33.9158 11.875 33.75 11.875C33.5842 11.875 33.4253 11.9408 33.3081 12.0581C33.1908 12.1753 33.125 12.3342 33.125 12.5V13.125H32.5C32.3342 13.125 32.1753 13.1908 32.0581 13.3081C31.9408 13.4253 31.875 13.5842 31.875 13.75C31.875 13.9158 31.9408 14.0747 32.0581 14.1919C32.1753 14.3092 32.3342 14.375 32.5 14.375H33.125V15C33.125 15.1658 33.1908 15.3247 33.3081 15.4419C33.4253 15.5592 33.5842 15.625 33.75 15.625C33.9158 15.625 34.0747 15.5592 34.1919 15.4419C34.3092 15.3247 34.375 15.1658 34.375 15ZM16.875 19.375H16.25V18.75C16.25 18.5842 16.1842 18.4253 16.0669 18.3081C15.9497 18.1908 15.7908 18.125 15.625 18.125C15.4592 18.125 15.3003 18.1908 15.1831 18.3081C15.0658 18.4253 15 18.5842 15 18.75V19.375H14.375C14.2092 19.375 14.0503 19.4408 13.9331 19.5581C13.8158 19.6753 13.75 19.8342 13.75 20C13.75 20.1658 13.8158 20.3247 13.9331 20.4419C14.0503 20.5592 14.2092 20.625 14.375 20.625H15V21.25C15 21.4158 15.0658 21.5747 15.1831 21.6919C15.3003 21.8092 15.4592 21.875 15.625 21.875C15.7908 21.875 15.9497 21.8092 16.0669 21.6919C16.1842 21.5747 16.25 21.4158 16.25 21.25V20.625H16.875C17.0408 20.625 17.1997 20.5592 17.3169 20.4419C17.4342 20.3247 17.5 20.1658 17.5 20C17.5 19.8342 17.4342 19.6753 17.3169 19.5581C17.1997 19.4408 17.0408 19.375 16.875 19.375Z" fill="#FCEA42"/>
<path d="M39.375 15.625C39.7202 15.625 40 15.3452 40 15C40 14.6548 39.7202 14.375 39.375 14.375C39.0298 14.375 38.75 14.6548 38.75 15C38.75 15.3452 39.0298 15.625 39.375 15.625Z" fill="#FCEA42"/>
<path d="M21.875 28.125C22.2202 28.125 22.5 27.8452 22.5 27.5C22.5 27.1548 22.2202 26.875 21.875 26.875C21.5298 26.875 21.25 27.1548 21.25 27.5C21.25 27.8452 21.5298 28.125 21.875 28.125Z" fill="#FCEA42"/>
<path d="M13.75 14.375C14.0952 14.375 14.375 14.0952 14.375 13.75C14.375 13.4048 14.0952 13.125 13.75 13.125C13.4048 13.125 13.125 13.4048 13.125 13.75C13.125 14.0952 13.4048 14.375 13.75 14.375Z" fill="#FCEA42"/>
<defs>
<filter id="filter0_bi_381_2726" x="-24" y="-24" width="108" height="108" filterUnits="userSpaceOnUse" color-interpolation-filters="sRGB">
<feFlood flood-opacity="0" result="BackgroundImageFix"/>
<feGaussianBlur in="BackgroundImageFix" stdDeviation="12"/>
<feComposite in2="SourceAlpha" operator="in" result="effect1_backgroundBlur_381_2726"/>
<feBlend mode="normal" in="SourceGraphic" in2="effect1_backgroundBlur_381_2726" result="shape"/>
<feColorMatrix in="SourceAlpha" type="matrix" values="0 0 0 0 0 0 0 0 0 0 0 0 0 0 0 0 0 0 127 0" result="hardAlpha"/>
<feOffset/>
<feGaussianBlur stdDeviation="8"/>
<feComposite in2="hardAlpha" operator="arithmetic" k2="-1" k3="1"/>
<feColorMatrix type="matrix" values="0 0 0 0 0 0 0 0 0 0 0 0 0 0 0 0 0 0 1 0"/>
<feBlend mode="normal" in2="shape" result="effect2_innerShadow_381_2726"/>
</filter>
<linearGradient id="paint0_linear_381_2726" x1="30" y1="0" x2="30" y2="60" gradientUnits="userSpaceOnUse">
<stop stop-opacity="0"/>
<stop offset="1" stop-color="white"/>
</linearGradient>
</defs>
</svg>
